# xmcd
#
# Track frame offsets: 
#        150
#        25346
#        40267
#        70940
#        93361
#        115478
#        139770
#        166912
#        183826
#        214642
#        242320
#        263841
#
# Disc length: 4062 seconds
#
# Revision: 0
# Processed by: cddbd v1.5.2PL0 Copyright (c) Steve Scherf et al.
# Submitted via: ExactAudioCopy v0.99pb5
#
DISCID=9e0fdc0c
DTITLE=Jaromi - Boogie woogie centryfugi
DYEAR=2007
DGENRE=Blues
TTITLE0=01.Blues babble bop
TTITLE1=02.Barbórka boogie
TTITLE2=03.Podatki i ZUS blues
TTITLE3=04.Co to Boogie,cy to woogie
TTITLE4=05.Doktor Sliwka
TTITLE5=06.Blues o Jerzyku
TTITLE6=07.Mieta zmietoszony
TTITLE7=08.Boogie woogie o 4tej nad ranem
TTITLE8=09.Jaromi grac lubi bardzo
TTITLE9=10.Smykalka blues
TTITLE10=11.Boogie woogie centryfugi
TTITLE11=12.Dzien dobry bluesie
EXTD=
EXTT0=
EXTT1=
EXTT2=
EXTT3=
EXTT4=
EXTT5=
EXTT6=
EXTT7=
EXTT8=
EXTT9=
EXTT10=
EXTT11=
PLAYORDER=
